<svg xmlns="http://www.w3.org/2000/svg" xmlns:xlink="http://www.w3.org/1999/xlink" version="1.1" x="0px" y="0px" viewBox="0 0 100 125" style="enable-background:new 0 0 100 100;" xml:space="preserve"><path d="M81.3,47.7l-5.8-10.3c-0.2-0.4-0.6-0.6-1-0.6H64.3v-5.6c0-0.7-0.5-1.2-1.2-1.2H28.3c-0.7,0-1.2,0.5-1.2,1.2v27.4v0.1v9.3  c0,0.7,0.5,1.2,1.2,1.2h5.2c0.7,0,1.2-0.5,1.2-1.2s-0.5-1.2-1.2-1.2h-4v-6.9h33.6h16v7.5H72c-0.7,0-1.2,0.5-1.2,1.2s0.5,1.2,1.2,1.2  h8.4c0.7,0,1.2-0.5,1.2-1.2v-9.9v-0.1V48.3C81.5,48.1,81.4,47.9,81.3,47.7z M73.8,39.2l5.3,9.4v8.7H64.3V39.2H73.8z M61.9,32.4V38  v19.4H29.5v-25H61.9z"/><path d="M38.9,73.8c-3.3,0-6-2.7-6-6c0-3.3,2.7-6,6-6c3.3,0,6,2.7,6,6C44.9,71.2,42.2,73.8,38.9,73.8z M38.9,64.3  c-2,0-3.6,1.6-3.6,3.6c0,2,1.6,3.6,3.6,3.6s3.6-1.6,3.6-3.6C42.5,65.9,40.9,64.3,38.9,64.3z"/><path d="M67.2,73.8c-3.3,0-6-2.7-6-6c0-3.3,2.7-6,6-6c3.3,0,6,2.7,6,6C73.1,71.2,70.5,73.8,67.2,73.8z M67.2,64.3  c-2,0-3.6,1.6-3.6,3.6c0,2,1.6,3.6,3.6,3.6c2,0,3.6-1.6,3.6-3.6C70.8,65.9,69.1,64.3,67.2,64.3z"/><circle cx="38.9" cy="67.9" r="1.3"/><circle cx="67.2" cy="67.9" r="1.3"/><path d="M30.1,27.3H16.8c-0.7,0-1.2-0.5-1.2-1.2s0.5-1.2,1.2-1.2h13.3c0.7,0,1.2,0.5,1.2,1.2S30.8,27.3,30.1,27.3z"/><path d="M30.1,22.7h-6c-0.7,0-1.2-0.5-1.2-1.2c0-0.7,0.5-1.2,1.2-1.2h6c0.7,0,1.2,0.5,1.2,1.2C31.3,22.1,30.8,22.7,30.1,22.7z"/><path d="M54.7,74.7h-6c-0.7,0-1.2-0.5-1.2-1.2c0-0.7,0.5-1.2,1.2-1.2h6c0.7,0,1.2,0.5,1.2,1.2C55.9,74.2,55.3,74.7,54.7,74.7z"/><path d="M74.2,50.5h-6c-0.7,0-1.2-0.5-1.2-1.2s0.5-1.2,1.2-1.2h6c0.7,0,1.2,0.5,1.2,1.2S74.9,50.5,74.2,50.5z"/><path d="M88.9,32.3H72.5c-0.7,0-1.2-0.5-1.2-1.2s0.5-1.2,1.2-1.2h16.4c0.7,0,1.2,0.5,1.2,1.2S89.6,32.3,88.9,32.3z"/><path d="M88.9,27.3h-6c-0.7,0-1.2-0.5-1.2-1.2s0.5-1.2,1.2-1.2h6c0.7,0,1.2,0.5,1.2,1.2S89.6,27.3,88.9,27.3z"/><path d="M79.8,27.3h-2.4c-0.7,0-1.2-0.5-1.2-1.2s0.5-1.2,1.2-1.2h2.4c0.7,0,1.2,0.5,1.2,1.2S80.4,27.3,79.8,27.3z"/><g><path d="M88.9,74.7h-6c-0.7,0-1.2-0.5-1.2-1.2c0-0.7,0.5-1.2,1.2-1.2h6c0.7,0,1.2,0.5,1.2,1.2C90.1,74.2,89.6,74.7,88.9,74.7z"/></g><g><path d="M79.8,74.7h-2.4c-0.7,0-1.2-0.5-1.2-1.2c0-0.7,0.5-1.2,1.2-1.2h2.4c0.7,0,1.2,0.5,1.2,1.2C81,74.2,80.4,74.7,79.8,74.7z"/></g><g><path d="M54.7,79.7H33.5c-0.7,0-1.2-0.5-1.2-1.2c0-0.7,0.5-1.2,1.2-1.2h21.1c0.7,0,1.2,0.5,1.2,1.2C55.9,79.2,55.3,79.7,54.7,79.7z   "/></g><path d="M56.8,27.3h-6c-0.7,0-1.2-0.5-1.2-1.2s0.5-1.2,1.2-1.2h6c0.7,0,1.2,0.5,1.2,1.2S57.5,27.3,56.8,27.3z"/><path d="M30.1,74.7H16.8c-0.7,0-1.2-0.5-1.2-1.2c0-0.7,0.5-1.2,1.2-1.2h13.3c0.7,0,1.2,0.5,1.2,1.2C31.3,74.2,30.8,74.7,30.1,74.7z"/><path d="M13.4,74.7h-2.4c-0.7,0-1.2-0.5-1.2-1.2c0-0.7,0.5-1.2,1.2-1.2h2.4c0.7,0,1.2,0.5,1.2,1.2C14.6,74.2,14.1,74.7,13.4,74.7z"/><path d="M62.4,69.7H48.6c-0.7,0-1.2-0.5-1.2-1.2c0-0.7,0.5-1.2,1.2-1.2h13.8c0.7,0,1.2,0.5,1.2,1.2C63.6,69.1,63.1,69.7,62.4,69.7z"/><g><g><path d="M45.7,55.3c-5.7,0-10.4-4.7-10.4-10.4S40,34.5,45.7,34.5c5.7,0,10.4,4.7,10.4,10.4S51.4,55.3,45.7,55.3z M45.7,36.5    c-4.6,0-8.4,3.8-8.4,8.4s3.8,8.4,8.4,8.4s8.4-3.8,8.4-8.4S50.3,36.5,45.7,36.5z"/></g></g><g><path d="M44.5,48.9l-3.4-3.4c-0.4-0.4-0.4-1,0-1.4c0.4-0.4,1-0.4,1.4,0l2,2l4.4-4.4c0.4-0.4,1-0.4,1.4,0s0.4,1,0,1.4L44.5,48.9z"/></g></svg>