<svg xmlns="http://www.w3.org/2000/svg" version="1.1" viewBox="-5.0 -10.0 110.0 135.0">
 <g>
  <path d="m40.938 61.344h-2.3281v-6.2031c0.15625-12.258-14.879-19.152-24-10.953-3.1875 2.7305-5.0156 6.7227-5.0156 10.953v6.2031h-2.3125c-2.293 0-4.1562 1.8555-4.1562 4.1406v19.422c0 2.293 1.8633 4.1562 4.1562 4.1562h33.656c2.293 0 4.1562-1.8633 4.1562-4.1562v-19.422c0-2.2852-1.8633-4.1406-4.1562-4.1406zm-28.219-6.2031c0-3.3125 1.4297-6.4414 3.9492-8.5977 7.0859-6.4531 19.004-0.95312 18.82 8.5977v6.2031h-3.3398v-6.207c0.042968-5.0898-5.0703-9.1562-10.027-7.7812-0.11719 0.023437-0.23047 0.054687-0.33594 0.089843-0.17188 0.042969-0.32031 0.097657-0.44531 0.15234-0.27344 0.09375-0.58203 0.23438-0.81641 0.34766l-0.25391 0.13672 0.015625 0.027344c-0.058594 0.03125-0.11328 0.058594-0.17188 0.09375l-0.019531-0.027344c-0.24609 0.13672-0.49609 0.29297-0.64062 0.41406-0.51953 0.35938-0.95703 0.80078-1.3828 1.2539-0.20312 0.22266-0.46875 0.58594-0.67969 0.89844-0.09375 0.125-0.17188 0.25391-0.23828 0.39062-0.082032 0.13281-0.16406 0.27734-0.23438 0.4375-0.097657 0.22656-0.19922 0.44922-0.28906 0.68359-0.011718 0.039063-0.035156 0.074219-0.046875 0.11328-0.066406 0.14844-0.11719 0.29687-0.15234 0.4375-0.035157 0.10937-0.066407 0.22266-0.089844 0.34375-0.46094 1.3438-0.20312 6.7227-0.26562 8.1953h-3.3555zm7.3125-2.7227c0.003906-0.003907 0.046875-0.066407 0.070312-0.10547 0.13281-0.1875 0.28125-0.36328 0.4375-0.52734 0.24219-0.26562 0.51563-0.50391 0.8125-0.70703 0.007813-0.007813 0.015626-0.007813 0.023438-0.015625 0.25781-0.17188 0.53125-0.32422 0.82031-0.44531 3.1367-1.3984 6.8711 1.125 6.8164 4.5312v6.1992h-9.8125c0.054687-0.89844-0.14453-6.6484 0.15625-7.3906 0.046875-0.19141 0.10547-0.37891 0.17578-0.55859 0.035156-0.10156 0.066406-0.19531 0.125-0.30078 0.097656-0.21094 0.20703-0.41406 0.33203-0.60938 0.015625-0.03125 0.039063-0.0625 0.042969-0.070312zm21.938 32.488c0 0.55859-0.47266 1.0312-1.0312 1.0312h-33.656c-0.55859 0-1.0312-0.47266-1.0312-1.0312v-19.422c0-0.55078 0.47266-1.0156 1.0312-1.0156 2.3281-0.011719 7.9688 0.007812 10.359 0h19.406 3.8906c0.55859 0 1.0312 0.46484 1.0312 1.0156z"/>
  <path d="m92.188 10.938h-73.438c-2.5859 0-4.6875 2.1016-4.6875 4.6875v22.281c0 0.86328 0.69922 1.5625 1.5625 1.5625s1.5625-0.69922 1.5625-1.5625v-22.281c0-0.86328 0.69922-1.5625 1.5625-1.5625h73.438c0.86328 0 1.5625 0.69922 1.5625 1.5625v57.812c0 0.86328-0.69922 1.5625-1.5625 1.5625h-42.406c-0.86328 0-1.5625 0.69922-1.5625 1.5625s0.69922 1.5625 1.5625 1.5625h42.406c2.5859 0 4.6875-2.1016 4.6875-4.6875v-57.812c0-2.5859-2.1016-4.6875-4.6875-4.6875z"/>
  <path d="m86.328 32.031c2.0508-0.035156 2.0547-3.0898 0-3.125h-4.6875c-2.0508 0.035156-2.0547 3.0898 0 3.125h4.6875z"/>
  <path d="m72.266 35.547c6.7109-0.21484 6.7109-9.9453 0-10.156-6.7109 0.21484-6.7109 9.9453 0 10.156zm0-7.0312c2.5664 0.046875 2.5664 3.8594 0 3.9062-2.5664-0.046875-2.5664-3.8594 0-3.9062z"/>
  <path d="m67.188 56.25c0 1.7227 1.4023 3.125 3.125 3.125h15.625c1.7227 0 3.125-1.4023 3.125-3.125v-12.891c0-1.7227-1.4023-3.125-3.125-3.125h-15.625c-1.7227 0-3.125 1.4023-3.125 3.125zm3.125-12.891 15.625 0.003906v12.887h-15.625z"/>
  <path d="m55.016 59.375c0.86328 0 1.5625-0.69922 1.5625-1.5625v-11.234h2.6094c1.2734 0.039063 2.0508-1.5859 1.2109-2.5508l-10.453-12.797c-0.14453-0.15234-0.30078-0.28906-0.48828-0.38281-0.21094-0.11719-0.46875-0.18359-0.71875-0.19141h-19.531c-0.46875 0-0.91406 0.21094-1.2109 0.57422l-3.125 3.8281c-1.2812 1.5898 1.1172 3.5547 2.4219 1.9766 0 0 2.6562-3.2539 2.6562-3.2539h15.488l-7.207 8.8242c-0.66406 0.78906-0.33594 2.0586 0.61719 2.4336 0.046875 0.63672 0.39062 1.1367 0.95703 1.418 0.30078 0.14844 0.75391 0.12109 1.0898 0.12109v2.9219c0 0.86328 0.69922 1.5625 1.5625 1.5625s1.5625-0.69922 1.5625-1.5625v-2.9219h9.4375l-0.003906 9.6719h-3.1562v-4.6641c0-0.86328-0.69922-1.5625-1.5625-1.5625s-1.5625 0.69922-1.5625 1.5625v4.6641h-1.8594c-0.86328 0-1.5625 0.69922-1.5625 1.5625s0.69922 1.5625 1.5625 1.5625zm-12.562-15.922h-0.88281l7.1641-8.7656 7.1602 8.7656z"/>
 </g>
</svg>